<svg width="246" height="50" viewBox="0 0 246 50" fill="none" xmlns="http://www.w3.org/2000/svg">
<path d="M57.888 44V21.6H61.44V40.832H72.224V44H57.888ZM72.523 44L80.715 21.6H86.987L95.179 44H91.403L89.483 38.592H78.059L76.139 44H72.523ZM79.211 35.424H88.331L83.787 22.624L79.211 35.424ZM95.3505 21.6H98.9025V35.456C98.9025 38.72 101.271 41.056 104.759 41.056C108.311 41.056 110.647 38.72 110.647 35.456V21.6H114.167V35.456C114.167 40.64 110.263 44.32 104.759 44.32C99.2865 44.32 95.3505 40.64 95.3505 35.456V21.6ZM116.968 44V21.6H123.848L132.904 43.296V21.6H136.424V44H129.544L120.52 22.304V44H116.968ZM138.907 32.8C138.907 26.304 143.995 21.28 150.619 21.28C155.675 21.28 159.419 24.352 160.955 27.776L157.691 29.056C156.475 26.464 153.883 24.544 150.619 24.544C146.075 24.544 142.555 28.128 142.555 32.8C142.555 37.472 146.075 41.056 150.619 41.056C153.883 41.056 156.475 39.136 157.691 36.544L160.955 37.824C159.419 41.248 155.675 44.32 150.619 44.32C143.995 44.32 138.907 39.296 138.907 32.8ZM163.438 44V21.6H166.99V31.232H179.022V21.6H182.542V44H179.022V34.368H166.99V44H163.438ZM185.673 44V21.6H194.633C199.241 21.6 202.345 24.64 202.345 28.704C202.345 32.736 199.241 35.712 194.633 35.712H189.225V44H185.673ZM189.225 32.544H194.633C197.065 32.544 198.697 30.88 198.697 28.672C198.697 26.432 197.065 24.768 194.633 24.768H189.225V32.544ZM199.996 44L208.188 21.6H214.46L222.652 44H218.876L216.956 38.592H205.532L203.612 44H199.996ZM206.684 35.424H215.804L211.26 22.624L206.684 35.424ZM224.174 44V21.6H232.558C239.118 21.6 243.95 26.464 243.95 32.8C243.95 39.136 239.118 44 232.558 44H224.174ZM227.726 40.832H232.302C236.974 40.832 240.302 37.408 240.302 32.8C240.302 28.16 236.974 24.768 232.302 24.768H227.726V40.832Z" fill="#180458"/>
<path d="M56.944 16V4.8H58.72V14.416H64.112V16H56.944ZM65.0615 16V7.824H66.7415V16H65.0615ZM64.8535 5.472C64.8535 4.896 65.3335 4.432 65.9095 4.432C66.4855 4.432 66.9495 4.896 66.9495 5.472C66.9495 6.048 66.4855 6.512 65.9095 6.512C65.3335 6.512 64.8535 6.048 64.8535 5.472ZM68.304 16V7.824H69.984V9.936C70.432 8.544 71.504 7.664 72.912 7.664C74.784 7.664 76.064 9.12 76.064 11.12V16H74.384V11.376C74.384 10.112 73.456 9.2 72.272 9.2C70.928 9.2 69.984 10.112 69.984 11.376V16H68.304ZM77.2421 11.92C77.2421 9.504 79.0821 7.664 81.4981 7.664C84.1221 7.664 86.0101 9.808 85.7061 12.48H78.9381C79.1781 13.776 80.2181 14.704 81.6261 14.704C82.6981 14.704 83.5781 14.144 84.0421 13.248L85.4501 13.872C84.7461 15.216 83.3701 16.16 81.5781 16.16C79.1141 16.16 77.2421 14.32 77.2421 11.92ZM78.9861 11.168H84.0101C83.7381 9.984 82.7941 9.12 81.4981 9.12C80.2501 9.12 79.2741 9.968 78.9861 11.168ZM86.5277 13.872C86.5277 12.144 87.9997 11.488 89.5357 11.328L91.1197 11.168C91.7117 11.12 92.0157 10.896 92.0157 10.368C92.0157 9.568 91.3277 9.072 90.3677 9.072C89.4077 9.072 88.6397 9.552 88.4317 10.576L86.7677 10.176C87.0717 8.656 88.4637 7.664 90.3677 7.664C92.2557 7.664 93.6957 8.656 93.6957 10.64V16H92.0157V13.824C91.5037 15.424 90.4477 16.16 88.9917 16.16C87.6317 16.16 86.5277 15.28 86.5277 13.872ZM88.2077 13.744C88.2077 14.384 88.7357 14.8 89.5357 14.8C90.9437 14.8 92.0157 13.68 92.0157 12.48V12.032C91.8717 12.272 91.5677 12.384 91.0877 12.432L89.5357 12.624C88.7517 12.72 88.2077 13.088 88.2077 13.744Z" fill="#180458"/>
<circle cx="17" cy="33" r="17" fill="#180458"/>
<circle cx="40" cy="10" r="6" fill="#180458"/>
</svg>
